<svg xmlns="http://www.w3.org/2000/svg" viewBox="0 0 512 512" style="height: 512px; width: 512px;">
    <path d="M0 0h512v512H0z" fill="#ff0000" fill-opacity="0"></path>
    <g class="" transform="translate(-1,-2)" style="touch-action: none;">
        <g>
            <path d="M54.53 118.73C38.907 193.614 74.95 242.33 118.656 269.29C85.593 261.48 53.604 249.807 20.406 232.445C45.906 309.933 101.571 328.261 150.312 323.195C123.379 337.447 94.92 348.497 66.375 355.977C135.821 399.12 186.485 372.435 214.645 334.66C212.586 332.813 210.513 330.98 208.428 329.162C203.235 325.465 198.3 321.212 193.65 316.452C187.682 311.357 181.605 306.157 175.477 300.722C141.829 270.885 107.499 235.108 106.047 187.892C106.045 187.842 106.047 187.792 106.045 187.742C86.898 165.685 69.573 142.438 54.531 118.729Z"
                  class="" fill="#ff0000" fill-opacity="1"></path>
            <path d="M457.47 118.73C442.43 142.435 425.102 165.673 405.955 187.723C405.955 187.749 405.958 187.773 405.959 187.801C407.347 233.768 372.483 270.461 337.991 301.187C324.121 313.542 310.131 325.011 298.087 335.627C326.385 372.887 376.77 398.752 445.627 355.977C417.084 348.497 388.647 337.447 361.717 323.197C410.454 328.253 466.097 309.917 491.593 232.447C458.396 249.81 426.406 261.483 393.343 269.292C437.048 242.33 473.093 193.617 457.468 118.732Z"
                  class="" fill="#ff0000" fill-opacity="1"></path>
            <path d="M325.05 122.707C302.904 122.877 279.655 134.557 264.025 161.067L256.242 174.267L248.506 161.039C229.033 127.753 194.112 117.416 166.356 125.289L166.346 125.289C141.86 132.236 122.96 152.246 124.039 187.337C125.226 225.947 154.641 258.189 187.419 287.255C203.809 301.788 220.779 315.378 234.831 328.775C243.188 336.743 250.608 344.617 256.163 352.917C261.731 345.199 269.086 337.774 277.38 330.057C291.762 316.673 309.236 302.694 326.02 287.743C359.587 257.843 389.065 224.628 387.97 188.345C386.852 151.371 365.247 129.965 339.352 124.218C334.657 123.175 329.858 122.668 325.049 122.705Z"
                  class="selected" fill="#ff7474" fill-opacity="1" stroke="#ff0000" stroke-opacity="1"
                  stroke-width="1"></path>
        </g>
    </g>
</svg>
